<?xml version="1.0" standalone="no"?>
<!DOCTYPE svg PUBLIC "-//W3C//DTD SVG 20010904//EN"
 "http://www.w3.org/TR/2001/REC-SVG-20010904/DTD/svg10.dtd">
<svg version="1.0" xmlns="http://www.w3.org/2000/svg"
 width="512.000000pt" height="512.000000pt" viewBox="0 0 512.000000 512.000000"
 preserveAspectRatio="xMidYMid meet">
<metadata>
Created by potrace 1.14, written by Peter Selinger 2001-2017
</metadata>
<g transform="translate(0.000000,512.000000) scale(0.100000,-0.100000)"
fill="#000000" stroke="none">
<path d="M200 4671 c-79 -24 -141 -80 -177 -158 l-24 -53 3 -407 c4 -394 5
-410 27 -478 75 -227 213 -391 413 -489 131 -64 187 -77 371 -83 l157 -6 0
-56 c0 -191 108 -345 293 -417 62 -25 197 -50 277 -53 24 -1 45 -3 47 -4 1 -2
3 -59 4 -127 2 -211 41 -414 104 -547 18 -39 69 -118 112 -175 83 -109 113
-172 138 -293 l14 -69 -30 -45 c-51 -77 -54 -105 -35 -306 9 -99 19 -200 22
-224 10 -89 67 -171 148 -214 40 -22 48 -22 496 -22 448 0 456 0 496 22 49 26
108 90 128 137 8 19 17 65 21 103 4 37 9 82 11 98 2 17 9 86 15 155 13 142 7
181 -40 250 -16 24 -28 48 -26 54 2 6 6 30 9 53 7 52 42 158 67 202 11 18 48
70 83 115 96 122 138 217 170 376 23 117 27 154 33 313 l5 147 42 0 c55 1 107
8 191 26 236 51 385 224 385 445 l0 57 158 5 c175 5 235 18 351 73 216 102
367 279 435 509 18 64 20 103 24 473 l3 403 -24 52 c-72 158 -245 211 -390
120 -45 -28 -94 -93 -107 -142 -5 -20 -10 -202 -12 -406 l-3 -370 -29 -63
c-50 -108 -160 -189 -278 -205 l-38 -5 0 107 c-1 199 -6 254 -27 296 -73 140
-246 169 -355 61 -38 -39 -57 -85 -64 -157 -18 -179 -122 -286 -296 -303 -27
-3 -48 -2 -49 2 -1 4 -2 84 -3 178 -3 166 -3 171 -31 222 -72 133 -228 165
-341 69 -43 -37 -65 -87 -75 -174 -10 -92 -36 -150 -91 -205 -82 -83 -134 -95
-376 -93 -171 2 -172 2 -237 34 -109 54 -159 132 -175 274 -11 92 -39 143
-103 186 -50 32 -144 40 -198 17 -46 -19 -94 -66 -121 -120 -19 -37 -21 -58
-22 -211 0 -93 -5 -173 -9 -176 -18 -13 -112 3 -161 26 -113 55 -169 140 -180
276 -3 33 -13 75 -22 94 -35 74 -116 127 -194 127 -92 -1 -165 -49 -205 -136
-21 -44 -23 -63 -24 -214 0 -91 -3 -168 -6 -171 -12 -11 -80 1 -131 24 -75 33
-146 103 -180 178 l-29 62 -5 385 c-5 378 -5 386 -28 432 -54 108 -192 172
-302 139z"/>
</g>
</svg>
